<mxfile host="app.diagrams.net" modified="2020-07-30T03:14:01.745Z" agent="5.0 (Macintosh; Intel Mac OS X 10_15_6) AppleWebKit/605.1.15 (KHTML, like Gecko) Version/13.1.2 Safari/605.1.15" etag="LX0RfpJz6BODyElPB1A5" version="13.5.5" type="github">
  <diagram id="C5RBs43oDa-KdzZeNtuy" name="Page-1">
    <mxGraphModel dx="1006" dy="646" grid="1" gridSize="10" guides="1" tooltips="1" connect="1" arrows="1" fold="1" page="1" pageScale="1" pageWidth="827" pageHeight="1169" math="0" shadow="0">
      <root>
        <mxCell id="WIyWlLk6GJQsqaUBKTNV-0" />
        <mxCell id="WIyWlLk6GJQsqaUBKTNV-1" parent="WIyWlLk6GJQsqaUBKTNV-0" />
        <mxCell id="qmh-TuIJ-NVj6ruHyIw6-0" value="" style="rounded=1;whiteSpace=wrap;html=1;arcSize=2;fillColor=#e1d5e7;strokeColor=#9673a6;" vertex="1" parent="WIyWlLk6GJQsqaUBKTNV-1">
          <mxGeometry y="90" width="830" height="770" as="geometry" />
        </mxCell>
        <mxCell id="qmh-TuIJ-NVj6ruHyIw6-1" value="&lt;font style=&quot;font-size: 22px&quot;&gt;COVID-19 TRACKER&lt;/font&gt;" style="text;html=1;strokeColor=none;fillColor=none;align=center;verticalAlign=middle;whiteSpace=wrap;rounded=0;" vertex="1" parent="WIyWlLk6GJQsqaUBKTNV-1">
          <mxGeometry x="70" y="140" width="240" height="30" as="geometry" />
        </mxCell>
        <mxCell id="qmh-TuIJ-NVj6ruHyIw6-2" value="WorldWide" style="rounded=1;whiteSpace=wrap;html=1;" vertex="1" parent="WIyWlLk6GJQsqaUBKTNV-1">
          <mxGeometry x="355" y="135" width="160" height="40" as="geometry" />
        </mxCell>
        <mxCell id="qmh-TuIJ-NVj6ruHyIw6-3" value="" style="rounded=1;whiteSpace=wrap;html=1;" vertex="1" parent="WIyWlLk6GJQsqaUBKTNV-1">
          <mxGeometry x="70" y="200" width="140" height="80" as="geometry" />
        </mxCell>
        <mxCell id="qmh-TuIJ-NVj6ruHyIw6-5" value="&lt;font style=&quot;font-size: 10px&quot;&gt;Coronavirus Cases&lt;/font&gt;" style="text;html=1;strokeColor=none;fillColor=none;align=center;verticalAlign=middle;whiteSpace=wrap;rounded=0;" vertex="1" parent="WIyWlLk6GJQsqaUBKTNV-1">
          <mxGeometry x="70" y="210" width="110" height="20" as="geometry" />
        </mxCell>
        <mxCell id="qmh-TuIJ-NVj6ruHyIw6-6" value="+2,000" style="text;html=1;strokeColor=none;fillColor=none;align=center;verticalAlign=middle;whiteSpace=wrap;rounded=0;" vertex="1" parent="WIyWlLk6GJQsqaUBKTNV-1">
          <mxGeometry x="85" y="230" width="40" height="20" as="geometry" />
        </mxCell>
        <mxCell id="qmh-TuIJ-NVj6ruHyIw6-7" value="1.2 million" style="text;html=1;strokeColor=none;fillColor=none;align=center;verticalAlign=middle;whiteSpace=wrap;rounded=0;" vertex="1" parent="WIyWlLk6GJQsqaUBKTNV-1">
          <mxGeometry x="85" y="250" width="65" height="20" as="geometry" />
        </mxCell>
        <mxCell id="qmh-TuIJ-NVj6ruHyIw6-9" value="" style="rounded=1;whiteSpace=wrap;html=1;" vertex="1" parent="WIyWlLk6GJQsqaUBKTNV-1">
          <mxGeometry x="239" y="200" width="140" height="80" as="geometry" />
        </mxCell>
        <mxCell id="qmh-TuIJ-NVj6ruHyIw6-11" value="&lt;font style=&quot;font-size: 10px&quot;&gt;Recovered Cases&lt;/font&gt;" style="text;html=1;strokeColor=none;fillColor=none;align=center;verticalAlign=middle;whiteSpace=wrap;rounded=0;" vertex="1" parent="WIyWlLk6GJQsqaUBKTNV-1">
          <mxGeometry x="245" y="210" width="110" height="20" as="geometry" />
        </mxCell>
        <mxCell id="qmh-TuIJ-NVj6ruHyIw6-12" value="+2,000" style="text;html=1;strokeColor=none;fillColor=none;align=center;verticalAlign=middle;whiteSpace=wrap;rounded=0;" vertex="1" parent="WIyWlLk6GJQsqaUBKTNV-1">
          <mxGeometry x="255" y="230" width="40" height="20" as="geometry" />
        </mxCell>
        <mxCell id="qmh-TuIJ-NVj6ruHyIw6-13" value="1.2 million" style="text;html=1;strokeColor=none;fillColor=none;align=center;verticalAlign=middle;whiteSpace=wrap;rounded=0;" vertex="1" parent="WIyWlLk6GJQsqaUBKTNV-1">
          <mxGeometry x="255" y="250" width="65" height="20" as="geometry" />
        </mxCell>
        <mxCell id="qmh-TuIJ-NVj6ruHyIw6-14" value="" style="rounded=1;whiteSpace=wrap;html=1;" vertex="1" parent="WIyWlLk6GJQsqaUBKTNV-1">
          <mxGeometry x="410" y="200" width="140" height="80" as="geometry" />
        </mxCell>
        <mxCell id="qmh-TuIJ-NVj6ruHyIw6-15" value="&lt;font style=&quot;font-size: 10px&quot;&gt;Deaths&amp;nbsp;&lt;/font&gt;" style="text;html=1;strokeColor=none;fillColor=none;align=center;verticalAlign=middle;whiteSpace=wrap;rounded=0;" vertex="1" parent="WIyWlLk6GJQsqaUBKTNV-1">
          <mxGeometry x="400" y="210" width="110" height="20" as="geometry" />
        </mxCell>
        <mxCell id="qmh-TuIJ-NVj6ruHyIw6-16" value="+2,000" style="text;html=1;strokeColor=none;fillColor=none;align=center;verticalAlign=middle;whiteSpace=wrap;rounded=0;" vertex="1" parent="WIyWlLk6GJQsqaUBKTNV-1">
          <mxGeometry x="430" y="230" width="40" height="20" as="geometry" />
        </mxCell>
        <mxCell id="qmh-TuIJ-NVj6ruHyIw6-17" value="1.2 million" style="text;html=1;strokeColor=none;fillColor=none;align=center;verticalAlign=middle;whiteSpace=wrap;rounded=0;" vertex="1" parent="WIyWlLk6GJQsqaUBKTNV-1">
          <mxGeometry x="422.5" y="250" width="65" height="20" as="geometry" />
        </mxCell>
        <mxCell id="qmh-TuIJ-NVj6ruHyIw6-19" value="" style="rounded=1;whiteSpace=wrap;html=1;arcSize=3;" vertex="1" parent="WIyWlLk6GJQsqaUBKTNV-1">
          <mxGeometry x="60" y="310" width="510" height="300" as="geometry" />
        </mxCell>
        <mxCell id="qmh-TuIJ-NVj6ruHyIw6-20" value="" style="shape=image;html=1;verticalAlign=top;verticalLabelPosition=bottom;labelBackgroundColor=#ffffff;imageAspect=0;aspect=fixed;image=https://cdn1.iconfinder.com/data/icons/flat-and-simple-part-1/128/location-128.png" vertex="1" parent="WIyWlLk6GJQsqaUBKTNV-1">
          <mxGeometry x="245" y="380" width="128" height="128" as="geometry" />
        </mxCell>
        <mxCell id="qmh-TuIJ-NVj6ruHyIw6-21" value="" style="rounded=1;whiteSpace=wrap;html=1;arcSize=2;" vertex="1" parent="WIyWlLk6GJQsqaUBKTNV-1">
          <mxGeometry x="600" y="140" width="210" height="480" as="geometry" />
        </mxCell>
        <mxCell id="qmh-TuIJ-NVj6ruHyIw6-22" value="Cases by Country" style="text;html=1;strokeColor=none;fillColor=none;align=center;verticalAlign=middle;whiteSpace=wrap;rounded=0;" vertex="1" parent="WIyWlLk6GJQsqaUBKTNV-1">
          <mxGeometry x="610" y="150" width="120" height="40" as="geometry" />
        </mxCell>
        <mxCell id="qmh-TuIJ-NVj6ruHyIw6-23" value="World-Wide New Cases" style="text;html=1;strokeColor=none;fillColor=none;align=center;verticalAlign=middle;whiteSpace=wrap;rounded=0;" vertex="1" parent="WIyWlLk6GJQsqaUBKTNV-1">
          <mxGeometry x="610" y="440" width="140" height="25" as="geometry" />
        </mxCell>
        <mxCell id="qmh-TuIJ-NVj6ruHyIw6-39" value="" style="fillColor=#10739E;strokeColor=none;" vertex="1" parent="WIyWlLk6GJQsqaUBKTNV-1">
          <mxGeometry x="620" y="500" width="30" height="100" as="geometry" />
        </mxCell>
        <mxCell id="qmh-TuIJ-NVj6ruHyIw6-40" value="" style="shape=mxgraph.arrows2.arrow;dy=0.4;dx=16;notch=0;direction=north;fillColor=#1699D3;strokeColor=none;" vertex="1" parent="qmh-TuIJ-NVj6ruHyIw6-39">
          <mxGeometry x="3" y="30" width="24" height="70" as="geometry" />
        </mxCell>
        <mxCell id="qmh-TuIJ-NVj6ruHyIw6-41" value="Label" style="text;html=1;align=center;verticalAlign=middle;whiteSpace=wrap;fontColor=#FFFFFF;fontSize=10;" vertex="1" parent="qmh-TuIJ-NVj6ruHyIw6-39">
          <mxGeometry width="30" height="20" as="geometry" />
        </mxCell>
        <mxCell id="qmh-TuIJ-NVj6ruHyIw6-42" value="" style="fillColor=#F2931E;strokeColor=none;" vertex="1" parent="WIyWlLk6GJQsqaUBKTNV-1">
          <mxGeometry x="655" y="480" width="30" height="120" as="geometry" />
        </mxCell>
        <mxCell id="qmh-TuIJ-NVj6ruHyIw6-43" value="" style="shape=mxgraph.arrows2.arrow;dy=0.4;dx=16;notch=0;direction=south;fillColor=#F5AB50;strokeColor=none;" vertex="1" parent="qmh-TuIJ-NVj6ruHyIw6-42">
          <mxGeometry x="3" width="24" height="80" as="geometry" />
        </mxCell>
        <mxCell id="qmh-TuIJ-NVj6ruHyIw6-44" value="Label" style="text;html=1;align=center;verticalAlign=middle;whiteSpace=wrap;fontColor=#FFFFFF;fontSize=10;" vertex="1" parent="qmh-TuIJ-NVj6ruHyIw6-42">
          <mxGeometry width="30" height="20" as="geometry" />
        </mxCell>
        <mxCell id="qmh-TuIJ-NVj6ruHyIw6-45" value="" style="fillColor=#AE4132;strokeColor=none;" vertex="1" parent="WIyWlLk6GJQsqaUBKTNV-1">
          <mxGeometry x="690" y="470" width="30" height="130" as="geometry" />
        </mxCell>
        <mxCell id="qmh-TuIJ-NVj6ruHyIw6-46" value="" style="shape=mxgraph.arrows2.arrow;dy=0.4;dx=16;notch=0;direction=north;fillColor=#E85642;strokeColor=none;" vertex="1" parent="qmh-TuIJ-NVj6ruHyIw6-45">
          <mxGeometry x="3" y="80" width="24" height="50" as="geometry" />
        </mxCell>
        <mxCell id="qmh-TuIJ-NVj6ruHyIw6-47" value="Label" style="text;html=1;align=center;verticalAlign=middle;whiteSpace=wrap;fontColor=#FFFFFF;fontSize=10;" vertex="1" parent="qmh-TuIJ-NVj6ruHyIw6-45">
          <mxGeometry width="30" height="20" as="geometry" />
        </mxCell>
        <mxCell id="qmh-TuIJ-NVj6ruHyIw6-48" value="" style="fillColor=#12AAB5;strokeColor=none;" vertex="1" parent="WIyWlLk6GJQsqaUBKTNV-1">
          <mxGeometry x="725" y="520" width="30" height="80" as="geometry" />
        </mxCell>
        <mxCell id="qmh-TuIJ-NVj6ruHyIw6-49" value="" style="shape=mxgraph.arrows2.arrow;dy=0.4;dx=16;notch=0;direction=south;fillColor=#64BBE2;strokeColor=none;" vertex="1" parent="qmh-TuIJ-NVj6ruHyIw6-48">
          <mxGeometry x="3" width="24" height="30" as="geometry" />
        </mxCell>
        <mxCell id="qmh-TuIJ-NVj6ruHyIw6-50" value="Label" style="text;html=1;align=center;verticalAlign=middle;whiteSpace=wrap;fontColor=#FFFFFF;fontSize=10;" vertex="1" parent="qmh-TuIJ-NVj6ruHyIw6-48">
          <mxGeometry width="30" height="20" as="geometry" />
        </mxCell>
        <mxCell id="qmh-TuIJ-NVj6ruHyIw6-51" value="" style="fillColor=#23445D;strokeColor=none;" vertex="1" parent="WIyWlLk6GJQsqaUBKTNV-1">
          <mxGeometry x="760" y="530" width="30" height="70" as="geometry" />
        </mxCell>
        <mxCell id="qmh-TuIJ-NVj6ruHyIw6-52" value="" style="shape=mxgraph.arrows2.arrow;dy=0.4;dx=16;notch=0;direction=north;fillColor=#2F5B7C;strokeColor=none;" vertex="1" parent="qmh-TuIJ-NVj6ruHyIw6-51">
          <mxGeometry x="3" y="10" width="24" height="60" as="geometry" />
        </mxCell>
        <mxCell id="qmh-TuIJ-NVj6ruHyIw6-53" value="Label" style="text;html=1;align=center;verticalAlign=middle;whiteSpace=wrap;fontColor=#FFFFFF;fontSize=10;" vertex="1" parent="qmh-TuIJ-NVj6ruHyIw6-51">
          <mxGeometry width="30" height="20" as="geometry" />
        </mxCell>
        <mxCell id="qmh-TuIJ-NVj6ruHyIw6-54" value="" style="shape=table;html=1;whiteSpace=wrap;startSize=0;container=1;collapsible=0;childLayout=tableLayout;columnLines=0;rowLines=0;" vertex="1" parent="WIyWlLk6GJQsqaUBKTNV-1">
          <mxGeometry x="615" y="190" width="180" height="230" as="geometry" />
        </mxCell>
        <mxCell id="qmh-TuIJ-NVj6ruHyIw6-55" value="" style="shape=partialRectangle;html=1;whiteSpace=wrap;collapsible=0;dropTarget=0;pointerEvents=0;fillColor=none;top=0;left=0;bottom=0;right=0;points=[[0,0.5],[1,0.5]];portConstraint=eastwest;" vertex="1" parent="qmh-TuIJ-NVj6ruHyIw6-54">
          <mxGeometry width="180" height="76" as="geometry" />
        </mxCell>
        <mxCell id="qmh-TuIJ-NVj6ruHyIw6-56" value="Value 1" style="shape=partialRectangle;html=1;whiteSpace=wrap;connectable=0;fillColor=none;top=0;left=0;bottom=0;right=0;overflow=hidden;" vertex="1" parent="qmh-TuIJ-NVj6ruHyIw6-55">
          <mxGeometry width="60" height="76" as="geometry" />
        </mxCell>
        <mxCell id="qmh-TuIJ-NVj6ruHyIw6-57" value="Value 2" style="shape=partialRectangle;html=1;whiteSpace=wrap;connectable=0;fillColor=none;top=0;left=0;bottom=0;right=0;overflow=hidden;" vertex="1" parent="qmh-TuIJ-NVj6ruHyIw6-55">
          <mxGeometry x="60" width="60" height="76" as="geometry" />
        </mxCell>
        <mxCell id="qmh-TuIJ-NVj6ruHyIw6-58" value="Value 3" style="shape=partialRectangle;html=1;whiteSpace=wrap;connectable=0;fillColor=none;top=0;left=0;bottom=0;right=0;overflow=hidden;" vertex="1" parent="qmh-TuIJ-NVj6ruHyIw6-55">
          <mxGeometry x="120" width="60" height="76" as="geometry" />
        </mxCell>
        <mxCell id="qmh-TuIJ-NVj6ruHyIw6-59" value="" style="shape=partialRectangle;html=1;whiteSpace=wrap;collapsible=0;dropTarget=0;pointerEvents=0;fillColor=none;top=0;left=0;bottom=0;right=0;points=[[0,0.5],[1,0.5]];portConstraint=eastwest;" vertex="1" parent="qmh-TuIJ-NVj6ruHyIw6-54">
          <mxGeometry y="76" width="180" height="78" as="geometry" />
        </mxCell>
        <mxCell id="qmh-TuIJ-NVj6ruHyIw6-60" value="Value 4" style="shape=partialRectangle;html=1;whiteSpace=wrap;connectable=0;fillColor=none;top=0;left=0;bottom=0;right=0;overflow=hidden;" vertex="1" parent="qmh-TuIJ-NVj6ruHyIw6-59">
          <mxGeometry width="60" height="78" as="geometry" />
        </mxCell>
        <mxCell id="qmh-TuIJ-NVj6ruHyIw6-61" value="Value 5" style="shape=partialRectangle;html=1;whiteSpace=wrap;connectable=0;fillColor=none;top=0;left=0;bottom=0;right=0;overflow=hidden;" vertex="1" parent="qmh-TuIJ-NVj6ruHyIw6-59">
          <mxGeometry x="60" width="60" height="78" as="geometry" />
        </mxCell>
        <mxCell id="qmh-TuIJ-NVj6ruHyIw6-62" value="Value 6" style="shape=partialRectangle;html=1;whiteSpace=wrap;connectable=0;fillColor=none;top=0;left=0;bottom=0;right=0;overflow=hidden;" vertex="1" parent="qmh-TuIJ-NVj6ruHyIw6-59">
          <mxGeometry x="120" width="60" height="78" as="geometry" />
        </mxCell>
        <mxCell id="qmh-TuIJ-NVj6ruHyIw6-63" value="" style="shape=partialRectangle;html=1;whiteSpace=wrap;collapsible=0;dropTarget=0;pointerEvents=0;fillColor=none;top=0;left=0;bottom=0;right=0;points=[[0,0.5],[1,0.5]];portConstraint=eastwest;" vertex="1" parent="qmh-TuIJ-NVj6ruHyIw6-54">
          <mxGeometry y="154" width="180" height="76" as="geometry" />
        </mxCell>
        <mxCell id="qmh-TuIJ-NVj6ruHyIw6-64" value="Value 7" style="shape=partialRectangle;html=1;whiteSpace=wrap;connectable=0;fillColor=none;top=0;left=0;bottom=0;right=0;overflow=hidden;" vertex="1" parent="qmh-TuIJ-NVj6ruHyIw6-63">
          <mxGeometry width="60" height="76" as="geometry" />
        </mxCell>
        <mxCell id="qmh-TuIJ-NVj6ruHyIw6-65" value="Value 8" style="shape=partialRectangle;html=1;whiteSpace=wrap;connectable=0;fillColor=none;top=0;left=0;bottom=0;right=0;overflow=hidden;" vertex="1" parent="qmh-TuIJ-NVj6ruHyIw6-63">
          <mxGeometry x="60" width="60" height="76" as="geometry" />
        </mxCell>
        <mxCell id="qmh-TuIJ-NVj6ruHyIw6-66" value="Value 9" style="shape=partialRectangle;html=1;whiteSpace=wrap;connectable=0;fillColor=none;top=0;left=0;bottom=0;right=0;overflow=hidden;" vertex="1" parent="qmh-TuIJ-NVj6ruHyIw6-63">
          <mxGeometry x="120" width="60" height="76" as="geometry" />
        </mxCell>
      </root>
    </mxGraphModel>
  </diagram>
</mxfile>
